<?xml version="1.0" encoding="UTF-8"?>
<svg id="Layer_1" data-name="Layer 1" xmlns="http://www.w3.org/2000/svg" viewBox="0 0 500 500">
  <defs>
    <style>
      .cls-1 {
        fill: #fff;
        stroke-width: 0px;
      }

      .cls-2 {
        fill: #3315f4;
        stroke: #3315f4;
        stroke-miterlimit: 10;
      }
    </style>
  </defs>
  <rect class="cls-1" width="500" height="500"/>
  <g>
    <path class="cls-2" d="M363.96,272.42c0,.84-.86,2.03-1.65,2.46-31.79,17.35-57.71,41.12-77.69,71.31-11.96,18.06-20.86,37.56-26.87,58.37-.21.75-.44,1.49-.91,2.16v-129.67h26.66v55.4c3.02-3.78,5.61-7.12,8.29-10.39,12.7-15.48,27.27-28.95,43.62-40.5,1.26-.89,1.8-1.77,1.76-3.34-.11-4.77-.04-9.55-.04-14.54h-80.25V93.28c2.4,6.9,4.66,13.87,7.24,20.71,4.78,12.67,11.01,24.63,18.12,36.15.79,1.28,1.27,2.97,1.27,4.48.07,30.84.06,61.67.06,92.51v2.88h53.55v-40.79c4.62,3.06,8.91,6.03,13.33,8.79,3.97,2.48,8.11,4.68,12.1,7.15.71.44,1.42,1.54,1.42,2.34.09,14.97.09,29.95,0,44.92Z"/>
    <path class="cls-2" d="M162.92,256.91v33.75c-.81-.47-1.33-.76-1.83-1.07-7.74-4.85-15.44-9.74-23.23-14.5-1.34-.82-1.9-1.58-1.9-3.19.07-14.65.07-29.3,0-43.95,0-1.62.55-2.4,1.92-3.15,47.8-26.47,81.29-65.27,100.24-116.56,1.81-4.9,3.27-9.94,5.19-14.94,0,.89,0,1.79,0,2.68,0,41.77,0,83.53-.07,125.3,0,1.21-.61,2.69-1.43,3.58-9.01,9.78-18.9,18.62-29.55,26.59-.64.48-1.27.98-2.05,1.58,1.93,2.56,3.75,5.1,5.74,7.49.45.54,1.51.81,2.29.81,7.45.06,14.89.04,22.34.04.8,0,1.59,0,2.55,0v145.19c-2.58-7.33-5.06-14.9-7.92-22.33-4.63-12.03-10.64-23.38-17.36-34.37-.82-1.35-1.33-3.12-1.33-4.7-.08-22.18-.04-44.36-.11-66.53,0-1.34-.47-2.89-1.24-3.98-3.89-5.56-7.92-11.04-12-16.47-.54-.72-1.66-1.4-2.51-1.41-12.3-.09-24.61-.05-36.91-.04-.22,0-.44.09-.84.18ZM216.47,167.8c-.44.31-.65.4-.77.55-14.53,19.57-31.75,36.38-51.64,50.47-.66.47-1.08,1.72-1.09,2.62-.09,6.95-.04,13.91-.04,20.87,0,1.1,0,2.2,0,3.42,10.69,0,21.11.03,31.53-.02,3.85-.02,8.02.65,11.47-.6,3.47-1.26,6.27-4.45,9.23-6.95.71-.6,1.26-1.82,1.26-2.76.07-21.35.06-42.71.06-64.06,0-1.1,0-2.19,0-3.54Z"/>
  </g>
</svg>